<svg width="20" height="12" viewBox="0 0 20 12" fill="none" xmlns="http://www.w3.org/2000/svg">
<path d="M10.1142 7.19898L11.3395 8.49105L18.6865 0.74411L19.9136 2.03801L11.3395 11.0789L5.81674 5.25538L7.04384 3.96148L8.88795 5.90599L10.1142 7.19807V7.19898ZM10.1159 4.61118L14.4133 0.0788574L15.637 1.3691L11.3395 5.90142L10.1159 4.61118ZM7.66259 9.78587L6.43637 11.0789L0.913574 5.25538L2.14067 3.96148L3.36689 5.25447L3.36603 5.25538L7.66259 9.78587Z" fill="#2898FF"/>
<path d="M10.1142 7.19898L11.3395 8.49105L18.6865 0.74411L19.9136 2.03801L11.3395 11.0789L5.81674 5.25538L7.04384 3.96148L8.88795 5.90599L10.1142 7.19807V7.19898ZM10.1159 4.61118L14.4133 0.0788574L15.637 1.3691L11.3395 5.90142L10.1159 4.61118ZM7.66259 9.78587L6.43637 11.0789L0.913574 5.25538L2.14067 3.96148L3.36689 5.25447L3.36603 5.25538L7.66259 9.78587Z" fill="url(#paint0_linear_75_301)" fill-opacity="0.6"/>
<defs>
<linearGradient id="paint0_linear_75_301" x1="5.69503" y1="16.0466" x2="22.1611" y2="0.865265" gradientUnits="userSpaceOnUse">
<stop stop-color="#2570F7"/>
<stop offset="1" stop-color="#00F2FE"/>
</linearGradient>
</defs>
</svg>
