<svg width="16" height="12" viewBox="0 0 16 12" fill="none" xmlns="http://www.w3.org/2000/svg">
<path fill-rule="evenodd" clip-rule="evenodd" d="M13.6403 0.766846H1.60474C0.639874 0.766846 0 1.39549 0 2.31625V10.4506C0 11.3714 0.639874 12 1.60474 12H13.6403C14.6051 12 15.245 11.3714 15.245 10.4506V2.31625C15.245 1.39549 14.6051 0.766846 13.6403 0.766846ZM14.0415 2.31517V3.47722L13.9216 3.56765L13.9216 3.56766C13.2442 4.07895 12.1717 4.88835 10.0296 6.57602C9.85533 6.66856 9.62588 6.83264 9.37944 7.00888L9.37943 7.00888C8.89732 7.35366 8.35016 7.74495 8.02369 7.73807C7.36295 7.74583 6.64588 7.25718 6.10865 6.89108C5.91865 6.76161 5.75114 6.64746 5.61658 6.57602C3.47623 4.88968 2.40354 4.08011 1.7259 3.56867L1.60474 3.47722V2.31517H14.0415ZM1.60474 5.02943V10.4523H14.0415V5.02943C13.3564 5.56275 12.3847 6.31125 10.832 7.35353C10.23 7.96297 9.10016 9.0566 8.02369 8.90294C6.53972 9.0566 5.3954 7.94687 4.81421 7.35353C3.26124 6.31099 2.28977 5.56269 1.60474 5.02943Z" fill="#2F5EDD"/>
</svg>
