<svg width="35" height="36" viewBox="0 0 35 36" fill="none" xmlns="http://www.w3.org/2000/svg">
<g clip-path="url(#clip0_75_269)">
<path d="M17.4985 0.5C14.1178 0.5 11.3672 3.25058 11.3672 6.63136V18.6817C11.3672 22.062 14.1178 24.8126 17.4985 24.8126C20.8793 24.8126 23.6299 22.0812 23.6299 18.7238V6.63136C23.6299 3.25058 20.8793 0.5 17.4985 0.5ZM21.0748 18.7234C21.0748 20.6719 19.4704 22.2575 17.4985 22.2575C15.5267 22.2575 13.9219 20.6535 13.9219 18.6813V6.63136C13.9219 4.65912 15.5263 3.05473 17.4985 3.05473C19.4708 3.05473 21.0752 4.65912 21.0748 6.63136V18.7234Z" fill="#1E1E31"/>
<path d="M18.7774 28.4727H16.2227V34.2209H18.7774V28.4727Z" fill="#1E1E31"/>
<path d="M20.8643 32.9453H14.1367C13.4312 32.9453 12.8594 33.5171 12.8594 34.2227C12.8594 34.9282 13.4312 35.5 14.1367 35.5H20.8643C21.5698 35.5 22.1416 34.9282 22.1416 34.2227C22.1416 33.5171 21.5698 32.9453 20.8643 32.9453Z" fill="#1E1E31"/>
<path d="M27.1669 16.5508C26.4614 16.5508 25.8895 17.1226 25.8895 17.8281V18.85C25.8895 23.475 22.1264 27.2382 17.5014 27.2382C12.8761 27.2382 9.11332 23.475 9.11332 18.85V17.8281C9.11332 17.1226 8.54149 16.5508 7.83596 16.5508C7.13042 16.5508 6.55859 17.1226 6.55859 17.8281V18.85C6.55859 24.8839 11.4675 29.7929 17.5014 29.7929C23.5353 29.7929 28.4443 24.8839 28.4443 18.85V17.8281C28.4443 17.1227 27.8724 16.5508 27.1669 16.5508Z" fill="#1E1E31"/>
</g>
<defs>
<clipPath id="clip0_75_269">
<rect width="35" height="35" fill="white" transform="translate(0 0.5)"/>
</clipPath>
</defs>
</svg>
