<svg width="15" height="15" viewBox="0 0 15 15" fill="none" xmlns="http://www.w3.org/2000/svg">
<path fill-rule="evenodd" clip-rule="evenodd" d="M4.04615 0.557296L1.38566 1.31743C0.657254 1.3384 0.245455 1.85755 0.245455 2.45764C0.245455 9.40779 5.87809 15.0028 12.7877 14.9999C13.3892 14.9999 13.9082 14.588 13.928 13.8597L14.6881 11.1992C14.7938 10.7311 14.4808 10.1103 13.928 9.67896L10.8874 8.53875C10.5151 8.41181 9.89455 8.56417 9.36712 8.91882L8.60698 10.059C7.13323 9.33161 5.91476 8.11274 5.18636 6.63841L6.32657 5.87827C6.67913 5.35053 6.83144 4.7298 6.70664 4.35799L5.56643 1.31743C5.13346 0.765647 4.51294 0.449643 4.04615 0.557296ZM13.1711 11.1991L12.411 13.8596C6.4097 13.8312 1.41731 8.83882 1.38896 2.83755L4.04945 2.07741L5.18966 4.7379L3.28931 6.25817C4.53862 9.24706 6.00714 10.7099 8.99035 11.9592L10.5106 10.0589L13.1711 11.1991Z" fill="#2F5EDD"/>
</svg>
