<svg width="35" height="36" viewBox="0 0 35 36" fill="none" xmlns="http://www.w3.org/2000/svg">
<g clip-path="url(#clip0_75_265)">
<path d="M33.8827 32.3795L25.5526 23.7158C27.6944 21.1697 28.8679 17.9662 28.8679 14.6312C28.8679 6.8394 22.5285 0.5 14.7367 0.5C6.94486 0.5 0.605469 6.8394 0.605469 14.6312C0.605469 22.4231 6.94486 28.7625 14.7367 28.7625C17.6619 28.7625 20.4494 27.8802 22.8327 26.2053L31.226 34.9348C31.5768 35.2991 32.0487 35.5 32.5544 35.5C33.033 35.5 33.487 35.3175 33.8317 34.9857C34.5641 34.281 34.5874 33.1124 33.8827 32.3795ZM14.7367 4.18641C20.4961 4.18641 25.1815 8.87184 25.1815 14.6312C25.1815 20.3906 20.4961 25.0761 14.7367 25.0761C8.9773 25.0761 4.29188 20.3906 4.29188 14.6312C4.29188 8.87184 8.9773 4.18641 14.7367 4.18641Z" fill="#1E1E31"/>
</g>
<defs>
<clipPath id="clip0_75_265">
<rect width="35" height="35" fill="white" transform="translate(0 0.5)"/>
</clipPath>
</defs>
</svg>
