<svg width="66" height="66" viewBox="0 0 66 66" fill="none" xmlns="http://www.w3.org/2000/svg">
<g clip-path="url(#clip0_119_420)">
<path d="M53.84 21.0426H49.1135V16.007C49.1135 13.1214 48.0278 10.3725 46.0564 8.26697C45.6899 7.87544 45.0754 7.85539 44.6841 8.2219C44.2927 8.58841 44.2726 9.20274 44.6391 9.59401C46.2723 11.3385 47.1719 13.616 47.1719 16.007V21.0426H27.4165C21.171 21.0426 16.09 26.1238 16.09 32.3693V35.8425H14.5693C13.9644 35.8425 13.3955 36.0781 12.9676 36.5059L7.8148 41.6587V36.4752C7.8148 35.6811 7.38963 34.9349 6.70497 34.5279C3.8696 32.842 2.10812 29.7497 2.10812 26.4577V16.007C2.10812 10.8322 6.31814 6.62216 11.493 6.62216H37.787C38.9999 6.62216 40.1797 6.84979 41.2936 7.29895C41.7909 7.49916 42.3566 7.25871 42.557 6.76156C42.7575 6.26428 42.5169 5.69858 42.0196 5.49812C40.6741 4.95552 39.2499 4.68054 37.787 4.68054H11.493C5.24755 4.68054 0.166504 9.76159 0.166504 16.007V26.4577C0.166504 30.4311 2.2917 34.1629 5.71271 36.1968C5.81173 36.2557 5.87317 36.3623 5.87317 36.4753V42.1275C5.87317 42.8368 6.29656 43.4704 6.95189 43.742C7.38925 43.9522 8.28224 43.9219 8.85632 43.3633L14.3404 37.879C14.4016 37.8178 14.4829 37.7842 14.5693 37.7842H16.09V42.8198C16.09 44.3486 16.3896 45.832 16.9804 47.229C17.1893 47.7227 17.7589 47.9534 18.2528 47.7449C18.7466 47.5361 18.9775 46.9665 18.7688 46.4726C18.2798 45.3163 18.0317 44.0874 18.0317 42.8199V32.3694C18.0317 27.1944 22.2417 22.9844 27.4166 22.9844H53.84C59.0149 22.9844 63.2249 27.1944 63.2249 32.3694V42.8199C63.2249 46.1248 61.535 49.1244 58.7043 50.8441C58.0372 51.2495 57.6227 51.9892 57.6227 52.7746V59.1065L51.3845 52.8681C50.9566 52.4403 50.3878 52.2047 49.7827 52.2047H27.4165C25.0614 52.2047 22.8094 51.3287 21.0751 49.7382C20.68 49.376 20.0659 49.4024 19.7033 49.7975C19.3409 50.1927 19.3674 50.8068 19.7626 51.1693C21.8559 53.0892 24.574 54.1464 27.4164 54.1464H49.7825C49.8676 54.1464 49.951 54.181 50.0112 54.2413L56.5809 60.811C57.0882 61.2008 57.5841 61.5022 58.4852 61.1897C59.1405 60.9181 59.5639 60.2845 59.5639 59.5752V52.7744C59.5639 52.6629 59.6208 52.5589 59.7122 52.5034C63.1276 50.4286 65.1665 46.8087 65.1665 42.8198V32.3693C65.1665 26.1238 60.0855 21.0426 53.84 21.0426Z" fill="white"/>
<path d="M37.8883 44.1955C37.319 43.3911 36.2819 42.8518 35.0991 42.8518C33.3056 42.8518 31.8467 44.0915 31.8467 45.6153C31.8467 47.139 33.3058 48.3787 35.0991 48.3787C36.6728 48.3787 37.9887 47.4241 38.2877 46.1607C39.7197 45.5576 40.847 44.3557 41.3363 42.8352C42.7541 42.5123 43.8158 41.2423 43.8158 39.728V36.2273C43.8158 34.7654 42.8264 33.5312 41.4822 33.1569C41.1658 31.207 40.2076 29.4179 38.7386 28.0657C37.0995 26.5569 34.9692 25.726 32.7402 25.726C28.3538 25.726 24.685 28.8854 23.9973 33.157C22.6536 33.5315 21.6646 34.7657 21.6646 36.2271V39.7279C21.6646 41.4854 23.0944 42.9153 24.852 42.9153C26.6095 42.9153 28.0394 41.4854 28.0394 39.7279V36.2271C28.0394 34.8567 27.1699 33.6855 25.9537 33.2361C26.5831 30.0198 29.3947 27.6676 32.7402 27.6676C36.0433 27.6676 38.8903 30.0609 39.5242 33.2371C38.3092 33.6872 37.441 34.8576 37.441 36.2271V39.7279C37.441 41.0233 38.2182 42.14 39.3306 42.638C39.022 43.3012 38.5143 43.8429 37.8883 44.1955ZM35.0991 46.4372C34.3266 46.4372 33.7883 46.0042 33.7883 45.6154C33.7883 45.2267 34.3266 44.7936 35.0991 44.7936C35.8716 44.7936 36.41 45.2267 36.41 45.6154C36.41 46.0042 35.8715 46.4372 35.0991 46.4372ZM26.0978 39.7281C26.0978 40.4151 25.5389 40.9739 24.852 40.9739C24.165 40.9739 23.6062 40.4151 23.6062 39.7281V36.2274C23.6062 35.5404 24.165 34.9816 24.852 34.9816C25.5389 34.9816 26.0978 35.5404 26.0978 36.2274V39.7281ZM39.3826 36.2274C39.3826 35.5404 39.9415 34.9816 40.6284 34.9816C41.3154 34.9816 41.8742 35.5404 41.8742 36.2274V39.7281C41.8742 40.4151 41.3154 40.9739 40.6284 40.9739C39.9415 40.9739 39.3826 40.4151 39.3826 39.7281V36.2274Z" fill="white"/>
<path d="M46.3385 31.2281H54.0713C54.6074 31.2281 55.0421 30.7936 55.0421 30.2573C55.0421 29.7211 54.6074 29.2865 54.0713 29.2865H46.3385C45.8024 29.2865 45.3677 29.7211 45.3677 30.2573C45.3677 30.7936 45.8024 31.2281 46.3385 31.2281Z" fill="white"/>
<path d="M46.3385 35.5741H52.3011C52.8372 35.5741 53.2719 35.1395 53.2719 34.6033C53.2719 34.067 52.8372 33.6324 52.3011 33.6324H46.3385C45.8024 33.6324 45.3677 34.067 45.3677 34.6033C45.3677 35.1395 45.8024 35.5741 46.3385 35.5741Z" fill="white"/>
<path d="M9.71741 18.8262C10.5168 18.8262 11.1648 18.1782 11.1648 17.3788C11.1648 16.5794 10.5168 15.9314 9.71741 15.9314C8.91804 15.9314 8.27002 16.5794 8.27002 17.3788C8.27002 18.1782 8.91804 18.8262 9.71741 18.8262Z" fill="white"/>
<path d="M14.1012 18.8262C14.9006 18.8262 15.5486 18.1782 15.5486 17.3788C15.5486 16.5794 14.9006 15.9314 14.1012 15.9314C13.3018 15.9314 12.6538 16.5794 12.6538 17.3788C12.6538 18.1782 13.3018 18.8262 14.1012 18.8262Z" fill="white"/>
<path d="M18.4591 18.8262C19.2585 18.8262 19.9065 18.1782 19.9065 17.3788C19.9065 16.5794 19.2585 15.9314 18.4591 15.9314C17.6597 15.9314 17.0117 16.5794 17.0117 17.3788C17.0117 18.1782 17.6597 18.8262 18.4591 18.8262Z" fill="white"/>
</g>
<defs>
<clipPath id="clip0_119_420">
<rect width="65" height="65" fill="white" transform="translate(0.166504 0.5)"/>
</clipPath>
</defs>
</svg>
