<svg width="66" height="66" viewBox="0 0 66 66" fill="none" xmlns="http://www.w3.org/2000/svg">
<path d="M45.1309 39.5826C45.2334 38.6485 45.5503 37.9119 46.1583 37.1945C48.6607 34.2425 50.0387 30.483 50.0387 26.6086C50.0387 17.5758 42.6901 10.2271 33.6572 10.2271C24.6244 10.2271 17.2758 17.5758 17.2758 26.6086C17.2758 27.1582 17.3036 27.7141 17.3585 28.2609C17.4503 29.1736 17.3022 29.9434 16.8785 30.7571C16.3651 31.7431 15.6536 32.7323 14.7638 33.6973C14.7453 33.7174 14.7275 33.7382 14.7107 33.7598C14.1337 34.497 13.9249 35.2348 14.0898 35.9529C14.2689 36.7319 14.8781 37.3816 15.9004 37.8844C16.0237 37.9492 16.029 37.9745 16.0406 38.0285C16.068 38.1572 16.0809 38.484 15.8658 39.2344C15.6993 39.683 15.7549 40.1722 16.0255 40.6206C16.2167 40.9375 16.5026 41.2131 16.8348 41.4406C16.449 41.8537 16.1703 42.3319 16.1275 42.8678C16.0981 43.2358 16.1642 43.9424 16.9378 44.5392C16.9418 44.5423 16.9458 44.5455 16.9499 44.5485C17.2832 44.7977 17.3627 45.8349 17.3702 46.6713C17.3401 47.5234 17.725 48.0486 18.0556 48.3402C18.8662 49.0551 20.2846 49.2076 22.5189 48.8196C22.536 48.8167 22.553 48.8132 22.5699 48.8093C24.3372 48.4084 25.7131 48.5232 26.6596 49.1504C27.5635 49.7496 28.1701 50.8842 28.4627 52.5226C28.5493 53.0069 28.9705 53.3596 29.4624 53.3596H47.0189C47.3697 53.3596 47.6957 53.1785 47.8811 52.8808C48.0664 52.5831 48.0851 52.2108 47.9303 51.8959C45.7103 47.3803 44.7423 43.1226 45.1309 39.5826ZM30.2807 51.3284C29.8229 49.5548 28.9845 48.255 27.7817 47.4576C26.3601 46.5153 24.4644 46.3016 22.1465 46.8227C20.0063 47.1913 19.4691 46.8688 19.4038 46.8207C19.4013 46.8076 19.398 46.7806 19.4001 46.7353C19.401 46.717 19.4014 46.6987 19.4012 46.6806C19.3867 44.6892 19.0402 43.603 18.208 42.954C18.3463 42.7668 18.7155 42.4219 19.4058 42.0469C19.8009 41.8323 20.008 41.3834 19.9147 40.9435C19.8214 40.5038 19.4499 40.1776 19.0018 40.142C18.5545 40.1064 18.0655 39.851 17.8546 39.6686C18.116 38.746 18.5146 36.9515 16.8262 36.0764C16.8192 36.0727 16.8121 36.0692 16.805 36.0658C16.2657 35.8021 16.0881 35.579 16.0694 35.4979C16.0589 35.4519 16.0921 35.2988 16.2876 35.0411C17.285 33.9544 18.0899 32.829 18.6802 31.6953C19.2808 30.5418 19.5096 29.352 19.3796 28.0582C19.3315 27.5786 19.3071 27.0909 19.3071 26.6088C19.3071 18.696 25.7446 12.2585 33.6572 12.2585C41.57 12.2585 48.0075 18.696 48.0075 26.6088C48.0075 30.0027 46.8006 33.2956 44.6088 35.8813C43.7468 36.8983 43.2572 38.0366 43.1118 39.3612C42.7245 42.8897 43.5229 47.0006 45.4258 51.3287H30.2807V51.3284ZM63.8022 36.8069H61.9876C62.1458 35.5483 62.2261 34.2725 62.2261 33C62.2261 24.9363 59.0859 17.3553 53.3841 11.6534C47.6822 5.95159 40.1012 2.8114 32.0376 2.8114C26.4156 2.8114 20.962 4.35807 16.2096 7.29005C14.7495 5.90652 12.7804 5.05517 10.615 5.05517C6.12541 5.05517 2.47284 8.70774 2.47284 13.1973C2.47284 15.5914 3.51183 17.7471 5.16222 19.2382C2.99284 23.472 1.84912 28.2112 1.84912 33C1.84912 39.6519 4.07017 46.1632 8.11616 51.4162L3.26439 59.8196C3.08298 60.1338 3.08298 60.521 3.26439 60.8352C3.44581 61.1494 3.78109 61.343 4.14393 61.343H19.3245C19.6873 61.343 20.0226 61.1494 20.204 60.8352C20.2133 60.8192 20.2199 60.8024 20.2281 60.7861C23.9419 62.3613 27.9776 63.1885 32.0374 63.1885C36.7865 63.1885 41.3321 62.1169 45.5482 60.0035C49.4179 58.0637 52.8824 55.2561 55.5998 51.869H63.8022C64.3631 51.869 64.8179 51.4143 64.8179 50.8534V37.8225C64.8179 37.2617 64.3631 36.8069 63.8022 36.8069ZM4.50422 13.1974C4.50422 9.82785 7.24552 7.08655 10.6151 7.08655C13.9847 7.08655 16.726 9.82785 16.726 13.1974C16.726 16.567 13.9847 19.3083 10.6151 19.3083C7.24552 19.3083 4.50422 16.567 4.50422 13.1974ZM5.90324 59.3116L11.7343 49.2119L17.5654 59.3116H5.90324ZM32.0377 61.1571C27.5696 61.1571 23.1336 60.0843 19.1867 58.0571L12.614 46.6728C12.4326 46.3586 12.0973 46.165 11.7345 46.165C11.3716 46.165 11.0363 46.3586 10.8549 46.6728L9.22231 49.5006C5.76867 44.7246 3.88037 38.9225 3.88037 33C3.88037 28.6253 4.90463 24.2967 6.84688 20.4117C7.97448 21.003 9.25595 21.3396 10.6151 21.3396C15.1047 21.3396 18.7572 17.687 18.7572 13.1974C18.7572 11.6101 18.2989 10.1286 17.5103 8.87494C21.8864 6.2338 26.8861 4.84265 32.0377 4.84265C47.5637 4.84265 60.1949 17.474 60.1949 32.9998C60.1949 34.2736 60.1077 35.5502 59.9382 36.8068H50.7714C50.2105 36.8068 49.7558 37.2615 49.7558 37.8224V50.8534C49.7558 51.4143 50.2105 51.869 50.7714 51.869H52.9362C47.5973 57.7961 40.0949 61.1571 32.0377 61.1571ZM62.7866 49.8378H51.787V38.8382H62.7866V49.8378ZM33.6575 13.5427C26.453 13.5427 20.5918 19.4039 20.5918 26.6084C20.5918 33.8128 26.453 39.6741 33.6575 39.6741C40.8619 39.6741 46.7232 33.8128 46.7232 26.6084C46.7232 19.4039 40.8619 13.5427 33.6575 13.5427ZM33.6575 37.643C27.5731 37.643 22.6231 32.693 22.6231 26.6085C22.6231 20.5242 27.5731 15.5741 33.6575 15.5741C39.742 15.5741 44.692 20.5242 44.692 26.6085C44.6919 32.693 39.7418 37.643 33.6575 37.643ZM34.6731 27.7977V18.3596C34.6731 17.7987 34.2184 17.344 33.6575 17.344C33.0966 17.344 32.6419 17.7987 32.6419 18.3596V27.7977C31.3529 28.2247 30.4202 29.4406 30.4202 30.8708C30.4202 32.3011 31.3529 33.5169 32.6419 33.944V34.8574C32.6419 35.4183 33.0966 35.873 33.6575 35.873C34.2184 35.873 34.6731 35.4183 34.6731 34.8574V33.944C35.9621 33.5169 36.8948 32.3011 36.8948 30.8708C36.8948 29.4406 35.9619 28.2247 34.6731 27.7977ZM33.6575 32.0769C32.9925 32.0769 32.4514 31.5358 32.4514 30.8708C32.4514 30.2059 32.9925 29.6648 33.6575 29.6648C34.3225 29.6648 34.8635 30.2059 34.8635 30.8708C34.8635 31.5358 34.3225 32.0769 33.6575 32.0769ZM31.9781 23.6157C31.9781 22.1855 31.0453 20.9696 29.7565 20.5426V18.3596C29.7565 17.7987 29.3017 17.344 28.7408 17.344C28.18 17.344 27.7252 17.7987 27.7252 18.3596V20.5426C26.4364 20.9696 25.5035 22.1855 25.5035 23.6157C25.5035 25.046 26.4363 26.2618 27.7252 26.6889V34.8575C27.7252 35.4184 28.18 35.8732 28.7408 35.8732C29.3017 35.8732 29.7565 35.4184 29.7565 34.8575V26.689C31.0453 26.2618 31.9781 25.046 31.9781 23.6157ZM28.7408 22.4097C29.4058 22.4097 29.9469 22.9506 29.9469 23.6157C29.9469 24.2808 29.4058 24.8218 28.7408 24.8218C28.0759 24.8218 27.5348 24.2807 27.5348 23.6157C27.5348 22.9507 28.0759 22.4097 28.7408 22.4097ZM39.5896 20.5424V18.3595C39.5896 17.7986 39.1349 17.3439 38.574 17.3439C38.0131 17.3439 37.5584 17.7986 37.5584 18.3595V20.5424C36.2695 20.9695 35.3367 22.1853 35.3367 23.6156C35.3367 25.0458 36.2694 26.2617 37.5584 26.6887V34.8574C37.5584 35.4183 38.0131 35.873 38.574 35.873C39.1349 35.873 39.5896 35.4183 39.5896 34.8574V26.6889C40.8786 26.2618 41.8113 25.046 41.8113 23.6156C41.8113 22.1852 40.8786 20.9695 39.5896 20.5424ZM38.5741 24.8218C37.9091 24.8218 37.3681 24.2807 37.3681 23.6157C37.3681 22.9507 37.9091 22.4097 38.5741 22.4097C39.2391 22.4097 39.7802 22.9506 39.7802 23.6157C39.7802 24.2808 39.2391 24.8218 38.5741 24.8218Z" fill="white"/>
</svg>
