<svg width="21" height="21" viewBox="0 0 21 21" fill="none" xmlns="http://www.w3.org/2000/svg">
<path fill-rule="evenodd" clip-rule="evenodd" d="M20.6844 8.13875C20.6416 8.00845 20.5279 7.91343 20.391 7.89363L13.8217 6.94735L10.8838 1.04719C10.8228 0.924091 10.6964 0.846344 10.5584 0.846344C10.4204 0.846344 10.2937 0.924091 10.233 1.04719L7.2948 6.94771L0.725445 7.89399C0.588538 7.91379 0.475236 8.00845 0.432022 8.13911C0.389533 8.26905 0.424759 8.41231 0.523898 8.50769L5.27787 13.1005L4.15538 19.586C4.13214 19.7209 4.18806 19.8574 4.29955 19.938C4.41176 20.0193 4.56029 20.0298 4.68195 19.9653L10.5584 16.9037L16.4342 19.9653C16.4872 19.9931 16.5456 20.0067 16.6034 20.0067C16.6786 20.0067 16.7534 19.9837 16.8169 19.938C16.9288 19.8574 16.9847 19.7209 16.9611 19.586L15.839 13.1009L20.5929 8.50769C20.6917 8.41159 20.7273 8.26869 20.6844 8.13875Z" fill="#DCDCDC"/>
</svg>
